Coordinates
version=1
nRows=16
nColumns=40
inDegrees=yes

Units are S.I. units (second, meters, Newtons, ...)
Angles are in degrees.

endheader
time	pelvis_tilt	pelvis_list	pelvis_rotation	pelvis_tx	pelvis_ty	pelvis_tz	hip_flexion_r	hip_adduction_r	hip_rotation_r	knee_angle_r	knee_angle_r_beta	ankle_angle_r	subtalar_angle_r	mtp_angle_r	hip_flexion_l	hip_adduction_l	hip_rotation_l	knee_angle_l	knee_angle_l_beta	ankle_angle_l	subtalar_angle_l	mtp_angle_l	lumbar_extension	lumbar_bending	lumbar_rotation	arm_flex_r	arm_add_r	arm_rot_r	elbow_flex_r	pro_sup_r	wrist_flex_r	wrist_dev_r	arm_flex_l	arm_add_l	arm_rot_l	elbow_flex_l	pro_sup_l	wrist_flex_l	wrist_dev_l
     20.45250000	     -3.35334126	     -4.63414515	      4.64196034	      1.07646632	      0.92258491	      0.43612770	      4.77198491	     -2.15794345	    -13.19052744	     28.55382054	     28.55382054	     16.71779060	     -3.13976617	     -6.47848805	     25.87319245	     -5.94848162	     -1.84725372	     26.55366449	     26.55366449	      7.33173709	    -13.77491221	      1.76298214	     -8.90026154	      4.59859916	      2.69225343	     30.55093126	    -18.02212110	     -8.04461932	     68.38704939	     45.06018608	      0.00000000	      0.00000000	     -2.53456499	     -8.76089174	      4.75452984	     29.20596505	     44.35068077	      0.00000000	      0.00000000
     20.46600000	     -3.30860154	     -4.38410083	      4.31129771	      1.07632662	      0.92326105	      0.43335189	      6.43496643	     -3.07800244	    -12.47543666	     32.24873560	     32.24873560	     15.75116657	     -4.36498054	     -7.36601030	     25.23758208	     -5.69558997	     -2.44307630	     26.40303602	     26.40303602	      7.73401795	    -13.55997959	      1.52057495	     -9.12947463	      4.32388606	      2.51968154	     29.06531793	    -17.74609135	     -7.67482225	     67.40026524	     45.07674710	      0.00000000	      0.00000000	     -1.39214736	     -9.08420869	      4.67927176	     29.54727739	     44.39245709	      0.00000000	      0.00000000
     20.47950000	     -3.39734492	     -4.33952519	      3.95067974	      1.07605469	      0.92367562	      0.43100414	      8.31530382	     -3.53105600	    -11.21344479	     35.68162636	     35.68162636	     12.86982854	     -7.38835694	    -11.96552694	     24.77826915	     -5.67753170	     -2.97674059	     26.23711683	     26.23711683	      7.95734700	    -13.36503798	      0.65282042	     -9.06180865	      4.20575826	      2.30529237	     27.98470464	    -17.60265676	     -6.32315487	     64.67983035	     45.14380407	      0.00000000	      0.00000000	     -0.17311082	     -9.36005593	      4.63263667	     29.59508878	     44.53546920	      0.00000000	      0.00000000
     20.49300000	     -3.32874790	     -4.08280838	      3.63354255	      1.07571524	      0.92422566	      0.42856030	     10.28657131	     -4.39061994	    -10.36622386	     39.75295303	     39.75295303	     11.35955101	     -8.65116873	    -12.37206351	     24.15074961	     -5.40299239	     -3.48708806	     26.11190819	     26.11190819	      8.31340633	    -13.24592533	      0.43163376	     -9.33325430	      3.93013367	      2.16129183	     26.30229854	    -17.30210068	     -5.99299151	     63.67924603	     45.16015238	      0.00000000	      0.00000000	      1.06902997	     -9.80339304	      4.50821908	     30.14246335	     44.58251638	      0.00000000	      0.00000000
     20.50650000	     -3.28032123	     -3.95340896	      3.34438050	      1.07524151	      0.92472688	      0.42638456	     12.36842387	     -4.98512891	     -9.39004662	     43.76899678	     43.76899678	      9.46707899	    -10.12412041	    -12.59621437	     23.56192600	     -5.25101620	     -3.89934018	     25.95017670	     25.95017670	      8.64586384	    -13.14486398	      0.19072138	     -9.56026078	      3.73697709	      2.06002686	     24.52284331	    -17.01411574	     -5.60671651	     62.43179187	     45.18203444	      0.00000000	      0.00000000	      2.36869465	    -10.21682502	      4.40544179	     30.70860701	     44.62571600	      0.00000000	      0.00000000
     20.52000000	     -3.29160673	     -3.77699134	      3.00157454	      1.07472890	      0.92506544	      0.42438187	     14.59742313	     -5.49480788	     -8.18534731	     47.72786557	     47.72786557	      7.24951382	    -11.81196268	    -12.61508657	     23.04598352	     -5.06481166	     -4.35173024	     25.81123161	     25.81123161	      8.93392967	    -13.06057157	     -0.09784013	     -9.65359194	      3.51761126	      2.04209578	     22.69390008	    -16.82593460	     -5.18707122	     60.87108280	     45.21342481	      0.00000000	      0.00000000	      3.71768382	    -10.65386453	      4.32051289	     31.31008444	     44.66766399	      0.00000000	      0.00000000
     20.53350000	     -3.22129138	     -3.83407922	      2.72868227	      1.07421942	      0.92554772	      0.42260963	     16.63391947	     -5.57869898	     -6.99490051	     51.27579432	     51.27579432	      4.60503476	    -13.72342298	    -13.00285580	     22.44925256	     -5.11683262	     -4.65806494	     25.59397200	     25.59397200	      8.95075262	    -13.05856835	     -1.23516001	     -9.75203493	      3.56321571	      1.66867317	     21.88474211	    -16.39465722	     -4.05784919	     56.65343764	     45.32683172	      0.00000000	      0.00000000	      4.89831734	    -11.20946957	      4.78447323	     31.91192085	     44.70308273	      0.00000000	      0.00000000
     20.54700000	     -3.06743256	     -3.68976469	      2.51685257	      1.07368757	      0.92606819	      0.42072145	     18.57063072	     -5.99733014	     -6.08056990	     54.72445552	     54.72445552	      2.44000250	    -14.44141298	    -12.55408737	     21.81220572	     -4.91886026	     -4.92505375	     25.49773105	     25.49773105	      9.27222898	    -13.05195919	     -1.39903067	    -10.08877308	      3.42433970	      1.37891735	     19.96307074	    -15.97598730	     -3.71940311	     55.47204899	     45.34591909	      0.00000000	      0.00000000	      6.27817812	    -11.74295801	      4.68616153	     32.54340275	     44.74577176	      0.00000000	      0.00000000
     20.56050000	     -3.00191543	     -3.72744143	      2.27982382	      1.07308382	      0.92652349	      0.41907303	     20.55371844	     -6.04256410	     -5.07005770	     57.83225193	     57.83225193	      0.53751067	    -15.07487002	    -11.15120246	     21.28791282	     -4.91868044	     -5.12843048	     25.38535872	     25.38535872	      9.51289387	    -13.07436234	     -1.63592579	    -10.25904863	      3.50855607	      1.63926309	     18.02021690	    -15.95212853	     -3.37945361	     53.04370701	     45.41136745	      0.00000000	      0.00000000	      7.82536216	    -12.06232904	      4.77766902	     33.41110205	     44.77919592	      0.00000000	      0.00000000
     20.57400000	     -2.84882760	     -3.65261626	      2.08527726	      1.07251586	      0.92705818	      0.41743034	     22.30086265	     -6.23806031	     -4.21498576	     60.50954381	     60.50954381	     -1.15508896	    -15.15786131	    -10.33254102	     20.67699281	     -4.79446360	     -5.34042461	     25.30521663	     25.30521663	      9.82967895	    -13.05238081	     -1.80383574	    -10.56922985	      3.46907486	      1.25876151	     16.15127286	    -15.45733871	     -3.09865442	     51.48491636	     45.44614177	      0.00000000	      0.00000000	      9.21203652	    -12.60675037	      4.77789175	     33.99175214	     44.80896767	      0.00000000	      0.00000000
     20.58750000	     -2.77945105	     -3.70602995	      1.86254196	      1.07189761	      0.92755579	      0.41600136	     24.04346169	     -6.19098832	     -3.37931892	     62.76976856	     62.76976856	     -2.28184298	    -14.88924073	     -8.73777617	     20.16018096	     -4.81485032	     -5.53174561	     25.18943566	     25.18943566	     10.06988463	    -13.04161440	     -1.94866667	    -10.71462406	      3.59064962	      1.51569510	     14.30941377	    -15.33186450	     -2.88592001	     48.69030424	     45.53031797	      0.00000000	      0.00000000	     10.79711447	    -12.88152736	      4.98821123	     34.85719427	     44.82377913	      0.00000000	      0.00000000
     20.60100000	     -2.62211772	     -3.84010774	      1.66224394	      1.07133971	      0.92827620	      0.41463953	     25.51047481	     -6.08934675	     -2.77741557	     64.51240112	     64.51240112	     -2.67788328	    -14.00279849	     -6.30744705	     19.55822672	     -4.91717125	     -5.65851789	     25.09294150	     25.09294150	     10.34678383	    -13.03739922	     -2.06513806	    -10.96706426	      3.80826849	      1.55847574	     12.91450616	    -14.89089410	     -2.83262552	     44.93437959	     45.66079154	      0.00000000	      0.00000000	     12.31465229	    -13.31460621	      5.56821021	     35.72556336	     44.80662030	      0.00000000	      0.00000000
     20.61450000	     -2.50879195	     -3.94144052	      1.50127431	      1.07075833	      0.92896937	      0.41336989	     26.92058249	     -6.00220406	     -2.26115379	     65.83824398	     65.83824398	     -2.23094406	    -12.76347263	     -2.61710794	     18.99816810	     -4.97000919	     -5.75454125	     24.98144727	     24.98144727	     10.66104502	    -13.02910249	     -2.02108565	    -11.13058921	      4.00871185	      0.75328254	     12.45715622	    -13.76617146	     -3.32078788	     40.14668868	     45.86145434	      0.00000000	      0.00000000	     13.21133105	    -14.33741768	      6.94617416	     36.80839776	     44.74284408	      0.00000000	      0.00000000
     20.62800000	     -2.45167416	     -4.06138325	      1.26608572	      1.07014906	      0.92960670	      0.41219412	     28.10834262	     -5.91789999	     -1.89914237	     66.34151550	     66.34151550	     -2.61880821	    -12.06846703	     -2.46711881	     18.47897114	     -5.05333137	     -5.89476910	     24.83982716	     24.83982716	     10.91258562	    -13.06367979	     -1.99817074	    -11.33497576	      4.25086530	      0.95286288	     10.36059338	    -13.62687138	     -3.25883475	     38.55796121	     45.90442519	      0.00000000	      0.00000000	     14.65670061	    -14.62326853	      6.89677599	     37.91120166	     44.79138284	      0.00000000	      0.00000000
     20.64150000	     -2.38651789	     -4.22541139	      1.01295782	      1.06954468	      0.93033094	      0.41115767	     29.10102311	     -5.77462700	     -1.68001319	     66.25489107	     66.25489107	     -2.69779443	    -11.43257454	     -2.23652528	     17.92712429	     -5.18726811	     -6.02136928	     24.66060442	     24.66060442	     11.17395151	    -13.10512096	     -1.91596095	    -11.54646025	      4.55731137	      1.16101141	      8.47666290	    -13.40978934	     -3.27668556	     36.56016428	     45.97008318	      0.00000000	      0.00000000	     16.02628878	    -14.90179225	      6.94378462	     39.11094719	     44.83104844	      0.00000000	      0.00000000
     20.65500000	     -2.36614911	     -4.39971585	      0.73351286	      1.06892604	      0.93104469	      0.41022876	     29.95299488	     -5.63620804	     -1.61764691	     65.56446739	     65.56446739	     -2.57330442	    -10.83631392	     -2.05535954	     17.39519270	     -5.32953891	     -6.15609753	     24.43132142	     24.43132142	     11.41842901	    -13.15609631	     -1.80021661	    -11.73181489	      4.86965143	      1.36182864	      6.72098045	    -13.18490493	     -3.32861214	     34.53239792	     46.04123848	      0.00000000	      0.00000000	     17.29161908	    -15.17527004	      6.98288044	     40.40879043	     44.86905661	      0.00000000	      0.00000000
